<svg width="0" height="0" class="hidden">
  <symbol xmlns="http://www.w3.org/2000/svg" xmlns:xlink="http://www.w3.org/1999/xlink" fill-rule="nonzero" viewBox="0,0,256,256" id="icons8-linkedin-2">
    <g fill="#424e4c" fill-rule="nonzero" stroke="none" stroke-width="1" stroke-linecap="butt" stroke-linejoin="miter" stroke-miterlimit="10" stroke-dasharray="" stroke-dashoffset="0" font-family="none" font-weight="none" font-size="none" text-anchor="none">
      <path d="M0,256v-256h256v256z" id="bgRectangle"></path>
    </g>
    <g fill="var(--social-icon-color)" fill-rule="nonzero" stroke="none" stroke-width="1" stroke-linecap="butt" stroke-linejoin="miter" stroke-miterlimit="10" stroke-dasharray="" stroke-dashoffset="0" font-family="none" font-weight="none" font-size="none" text-anchor="none">
      <g transform="scale(8.53333,8.53333)">
        <path d="M9,25h-5v-15h5zM6.501,8c-1.383,0 -2.501,-1.121 -2.501,-2.501c0,-1.38 1.12,-2.499 2.501,-2.499c1.378,0 2.499,1.121 2.499,2.499c0,1.38 -1.121,2.501 -2.499,2.501zM27,25h-4.807v-7.3c0,-1.741 -0.033,-3.98 -2.499,-3.98c-2.503,0 -2.888,1.896 -2.888,3.854v7.426h-4.806v-15.011h4.614v2.051h0.065c0.642,-1.18 2.211,-2.424 4.551,-2.424c4.87,0 5.77,3.109 5.77,7.151c0,0 0,8.233 0,8.233z"></path>
      </g>
    </g>
  </symbol>
  <symbol xmlns="http://www.w3.org/2000/svg" xmlns:xlink="http://www.w3.org/1999/xlink" fill-rule="nonzero" viewBox="0,0,256,256" id="icons8-vimeo">
    <g fill="#424e4c" fill-rule="nonzero" stroke="none" stroke-width="1" stroke-linecap="butt" stroke-linejoin="miter" stroke-miterlimit="10" stroke-dasharray="" stroke-dashoffset="0" font-family="none" font-weight="none" font-size="none" text-anchor="none">
      <path d="M0,256v-256h256v256z" id="bgRectangle"></path>
    </g>
    <g fill="var(--social-icon-color)" fill-rule="nonzero" stroke="none" stroke-width="1" stroke-linecap="butt" stroke-linejoin="miter" stroke-miterlimit="10" stroke-dasharray="" stroke-dashoffset="0" font-family="none" font-weight="none" font-size="none" text-anchor="none">
      <g transform="scale(5.12,5.12)">
        <path d="M41,5c-6.78906,-0.00781 -10.53125,3.79688 -12.83203,11.21094c1.20313,-0.44531 2.41016,-0.99609 3.50391,-0.99609c2.30078,0 3.06641,0.85547 2.73828,3.51172c-0.10937,1.66016 -0.76562,4.33984 -2.73828,7.4375c-1.97266,2.98828 -3.6875,3.83594 -4.67187,3.83594c-1.20312,0 -2.11719,-1.73047 -3.10156,-6.37891c-0.32812,-1.32812 -1.09375,-4.31641 -1.97266,-9.95703c-0.76562,-5.19922 -3.3125,-7.99609 -6.92578,-7.66406c-1.53125,0.10938 -3.36328,1.53516 -6.42969,4.19141c-2.19141,1.99219 -4.26953,3.42969 -6.57031,5.42188l2.19141,2.80859c2.07813,-1.4375 3.28516,-1.99219 3.61328,-1.99219c1.53125,0 2.95313,2.43359 4.37891,7.41406c1.20313,4.53516 2.51563,9.07031 3.72266,13.60547c1.85938,4.98047 4.16016,7.41406 6.78906,7.41406c4.37891,0 9.63281,-3.98047 15.875,-12.16797c6.12891,-7.74609 9.21094,-14.16016 9.42969,-18.69531c0.21875,-5.97266 -2.18359,-8.89062 -7,-9z"></path>
      </g>
    </g>
  </symbol>
  <symbol xmlns="http://www.w3.org/2000/svg" xmlns:xlink="http://www.w3.org/1999/xlink" fill-rule="nonzero" viewBox="0,0,256,256" id="icons8-facebook-f">
    <g fill="#424e4c" fill-rule="nonzero" stroke="none" stroke-width="1" stroke-linecap="butt" stroke-linejoin="miter" stroke-miterlimit="10" stroke-dasharray="" stroke-dashoffset="0" font-family="none" font-weight="none" font-size="none" text-anchor="none">
      <path d="M0,256v-256h256v256z" id="bgRectangle"></path>
    </g>
    <g fill="var(--social-icon-color)" fill-rule="nonzero" stroke="none" stroke-width="1" stroke-linecap="butt" stroke-linejoin="miter" stroke-miterlimit="10" stroke-dasharray="" stroke-dashoffset="0" font-family="none" font-weight="none" font-size="none" text-anchor="none">
      <g transform="scale(5.12,5.12)">
        <path d="M32,11h5c0.552,0 1,-0.448 1,-1v-6.737c0,-0.524 -0.403,-0.96 -0.925,-0.997c-1.591,-0.113 -4.699,-0.266 -6.934,-0.266c-6.141,0 -10.141,3.68 -10.141,10.368v6.632h-7c-0.552,0 -1,0.448 -1,1v7c0,0.552 0.448,1 1,1h7v19c0,0.552 0.448,1 1,1h7c0.552,0 1,-0.448 1,-1v-19h7.222c0.51,0 0.938,-0.383 0.994,-0.89l0.778,-7c0.066,-0.592 -0.398,-1.11 -0.994,-1.11h-8v-5c0,-1.657 1.343,-3 3,-3z"></path>
      </g>
    </g>
  </symbol>
  <symbol xmlns="http://www.w3.org/2000/svg" xmlns:xlink="http://www.w3.org/1999/xlink" fill-rule="nonzero" viewBox="0,0,256,256" id="icons8-instagram">
    <g fill="#424e4c" fill-rule="nonzero" stroke="none" stroke-width="1" stroke-linecap="butt" stroke-linejoin="miter" stroke-miterlimit="10" stroke-dasharray="" stroke-dashoffset="0" font-family="none" font-weight="none" font-size="none" text-anchor="none">
      <path d="M0,256v-256h256v256z" id="bgRectangle"></path>
    </g>
    <g fill="var(--social-icon-color)" fill-rule="nonzero" stroke="none" stroke-width="1" stroke-linecap="butt" stroke-linejoin="miter" stroke-miterlimit="10" stroke-dasharray="" stroke-dashoffset="0" font-family="none" font-weight="none" font-size="none" text-anchor="none">
      <g transform="scale(5.12,5.12)">
        <path d="M16,3c-7.17,0 -13,5.83 -13,13v18c0,7.17 5.83,13 13,13h18c7.17,0 13,-5.83 13,-13v-18c0,-7.17 -5.83,-13 -13,-13zM37,11c1.1,0 2,0.9 2,2c0,1.1 -0.9,2 -2,2c-1.1,0 -2,-0.9 -2,-2c0,-1.1 0.9,-2 2,-2zM25,14c6.07,0 11,4.93 11,11c0,6.07 -4.93,11 -11,11c-6.07,0 -11,-4.93 -11,-11c0,-6.07 4.93,-11 11,-11zM25,16c-4.96,0 -9,4.04 -9,9c0,4.96 4.04,9 9,9c4.96,0 9,-4.04 9,-9c0,-4.96 -4.04,-9 -9,-9z"></path>
      </g>
    </g>
  </symbol>
  <symbol xmlns="http://www.w3.org/2000/svg" xmlns:xlink="http://www.w3.org/1999/xlink" fill-rule="nonzero" viewBox="0,0,256,256" id="icons8-twitter">
    <g fill="#424e4c" fill-rule="nonzero" stroke="none" stroke-width="1" stroke-linecap="butt" stroke-linejoin="miter" stroke-miterlimit="10" stroke-dasharray="" stroke-dashoffset="0" font-family="none" font-weight="none" font-size="none" text-anchor="none">
      <path d="M0,256v-256h256v256z" id="bgRectangle"></path>
    </g>
    <g fill="var(--social-icon-color)" fill-rule="nonzero" stroke="none" stroke-width="1" stroke-linecap="butt" stroke-linejoin="miter" stroke-miterlimit="10" stroke-dasharray="" stroke-dashoffset="0" font-family="none" font-weight="none" font-size="none" text-anchor="none">
      <g transform="scale(8.53333,8.53333)">
        <path d="M28,6.937c-0.957,0.425 -1.985,0.711 -3.064,0.84c1.102,-0.66 1.947,-1.705 2.345,-2.951c-1.03,0.611 -2.172,1.055 -3.388,1.295c-0.973,-1.037 -2.359,-1.685 -3.893,-1.685c-2.946,0 -5.334,2.389 -5.334,5.334c0,0.418 0.048,0.826 0.138,1.215c-4.433,-0.222 -8.363,-2.346 -10.995,-5.574c-0.458,0.788 -0.721,1.704 -0.721,2.683c0,1.85 0.941,3.483 2.372,4.439c-0.874,-0.028 -1.697,-0.268 -2.416,-0.667c0,0.023 0,0.044 0,0.067c0,2.585 1.838,4.741 4.279,5.23c-0.447,0.122 -0.919,0.187 -1.406,0.187c-0.343,0 -0.678,-0.034 -1.003,-0.095c0.679,2.119 2.649,3.662 4.983,3.705c-1.825,1.431 -4.125,2.284 -6.625,2.284c-0.43,0 -0.855,-0.025 -1.273,-0.075c2.361,1.513 5.164,2.396 8.177,2.396c9.812,0 15.176,-8.128 15.176,-15.177c0,-0.231 -0.005,-0.461 -0.015,-0.69c1.043,-0.753 1.948,-1.692 2.663,-2.761z"></path>
      </g>
    </g>
  </symbol>
</svg>